<?xml version="1.0" encoding="utf-8"?>
<!-- Generator: Adobe Illustrator 16.0.0, SVG Export Plug-In . SVG Version: 6.00 Build 0)  -->
<!DOCTYPE svg PUBLIC "-//W3C//DTD SVG 1.1//EN" "http://www.w3.org/Graphics/SVG/1.1/DTD/svg11.dtd">
<svg version="1.1" xmlns="http://www.w3.org/2000/svg" xmlns:xlink="http://www.w3.org/1999/xlink" x="0px" y="0px" width="320px"
	 height="240px" viewBox="0 0 320 240" enable-background="new 0 0 320 240" xml:space="preserve">
<g id="row3">
	<path fill="#FFF100" stroke="#FC821F" stroke-width="5" stroke-miterlimit="10" d="M70,220c0,5.523-4.477,10-10,10H20
		c-5.522,0-10-4.477-10-10v-40c0-5.523,4.477-10,10-10h40c5.523,0,10,4.477,10,10V220z"/>
	<rect x="15.001" y="175.838" fill="none" width="53.749" height="52.162"/>
	<text transform="matrix(1 0 0 1 15.0015 218.8389)" fill="#FC821F" font-family="'mplus-1c-bold'" font-size="50">あ</text>
	<path fill="#FFF100" stroke="#FC821F" stroke-width="5" stroke-miterlimit="10" d="M150,220c0,5.523-4.477,10-10,10h-40
		c-5.522,0-10-4.477-10-10v-40c0-5.523,4.478-10,10-10h40c5.523,0,10,4.477,10,10V220z"/>
	<rect x="95.001" y="175.838" fill="none" width="53.749" height="52.162"/>
	<text transform="matrix(1 0 0 1 95.0015 218.8389)" fill="#FC821F" font-family="'mplus-1c-bold'" font-size="50">あ</text>
	<path fill="#FFF100" stroke="#FC821F" stroke-width="5" stroke-miterlimit="10" d="M230,220c0,5.523-4.477,10-10,10h-40
		c-5.522,0-10-4.477-10-10v-40c0-5.523,4.478-10,10-10h40c5.523,0,10,4.477,10,10V220z"/>
	<rect x="175.002" y="175.838" fill="none" width="53.748" height="52.162"/>
	<text transform="matrix(1 0 0 1 175.002 218.8389)" fill="#FC821F" font-family="'mplus-1c-bold'" font-size="50">あ</text>
	<path fill="#FFF100" stroke="#FC821F" stroke-width="5" stroke-miterlimit="10" d="M310,220c0,5.523-4.477,10-10,10h-40
		c-5.522,0-10-4.477-10-10v-40c0-5.523,4.478-10,10-10h40c5.523,0,10,4.477,10,10V220z"/>
	<rect x="255.002" y="175.838" fill="none" width="53.748" height="52.162"/>
	<text transform="matrix(1 0 0 1 255.002 218.8389)" fill="#FC821F" font-family="'mplus-1c-bold'" font-size="50">あ</text>
</g>
<g id="row2">
	<g id="sq_1_">
		<path fill="#FFFFFF" stroke="#920783" stroke-width="6" stroke-miterlimit="10" d="M70,140c0,5.523-4.477,10-10,10H20
			c-5.522,0-10-4.477-10-10v-40c0-5.523,4.477-10,10-10h40c5.523,0,10,4.477,10,10V140z"/>
		<path fill="#FFFFFF" stroke="#E61673" stroke-width="6" stroke-miterlimit="10" d="M150,140c0,5.523-4.477,10-10,10h-40
			c-5.522,0-10-4.477-10-10v-40c0-5.523,4.478-10,10-10h40c5.523,0,10,4.477,10,10V140z"/>
		<path fill="#FFFFFF" stroke="#22AC38" stroke-width="6" stroke-miterlimit="10" d="M230,140c0,5.523-4.477,10-10,10h-40
			c-5.522,0-10-4.477-10-10v-40c0-5.523,4.478-10,10-10h40c5.523,0,10,4.477,10,10V140z"/>
		<path fill="#FFFFFF" stroke="#2EA7E0" stroke-width="6" stroke-miterlimit="10" d="M310,140c0,5.523-4.477,10-10,10h-40
			c-5.522,0-10-4.477-10-10v-40c0-5.523,4.478-10,10-10h40c5.523,0,10,4.477,10,10V140z"/>
		<polygon fill="#E61673" points="120,97.325 125.43,114.036 143,114.036 128.785,124.363 134.215,141.075 120,130.747 
			105.785,141.075 111.215,124.363 97,114.036 114.57,114.036 		"/>
	</g>
	<g>
		<path fill="#920783" d="M36.551,137.4C34.951,139,32.7,140,29,140s-6.562-1.151-8.25-2.55C19,136,19.2,132.601,19,130h6
			c0.35,2.8,1,4.45,3.701,4.45c1.25,0,2.3-0.351,3.101-1.149c1.15-1.15,1.4-3.051,1.4-5.301c0-4.101-1.2-6.4-4.35-6.4
			c-2.65,0-3.401,1-3.851,2.4h-6v-20h20v6H25v8c0.95-0.9,2.451-1.901,4.851-1.901c2.95,0,5.2,0.95,6.65,2.4
			c2.8,2.8,3.499,6.15,3.499,9.501C40,132,39.151,134.801,36.551,137.4z"/>
		<path fill="#920783" d="M52,140c-5.8,0-11-3.199-11-10v-15c0-6.8,5.2-11,11-11c5.801,0,10,4,10,11v15
			C62,136.801,57.801,140,52,140z M56.151,115.1c0-3-1.75-4.85-4.3-4.85C49.301,110.25,47,112,47,115v15
			c0,3,2.301,4.752,4.851,4.752c2.55,0,4.3-1.801,4.3-4.801V115.1z"/>
	</g>
	<path fill="#22AC38" d="M220,132c0,1.657-1.343,3-3,3h-34c-1.657,0-3-1.343-3-3v-24c0-1.657,1.343-3,3-3h34c1.657,0,3,1.343,3,3
		V132z"/>
	<polyline fill="none" stroke="#FFFFFF" stroke-width="5" stroke-linecap="round" stroke-miterlimit="10" points="186,112 200,122 
		214,112 	"/>
	<path fill="#2EA7E0" d="M284,138v5h-6v-5c-4.912-0.15-9.441-1.003-12.749-4.411l5.613-5.614c1.805,1.805,5.328,2.975,8.136,3.025
		v-7l-2.421-0.386c-3.158-0.401-5.564-1.504-7.168-3.158c-1.654-1.704-2.456-4.11-2.456-7.168c0-5.814,4.378-10.436,11.045-11.288
		v-4h6v4c4.211,0.251,7.366,1.614,10.022,4.271l-5.514,5.514c-1.554-1.554-4.005-1.685-5.509-1.785v6l1.899,0.296
		c3.208,0.451,5.514,1.454,7.018,2.958c1.905,1.854,2.657,4.511,2.657,7.819C294.574,133.338,290.065,137.048,284,138z M279,110
		c-2.206,0.401-3.574,1.634-3.574,2.988c0,0.451,0.15,1.103,0.702,1.654c0.451,0.451,1.669,1.208,2.872,1.358V110z M285.251,125.168
		c-0.602-0.651-1.399-1.068-2.251-1.168v6c2.105-0.401,2.952-1.123,2.952-2.727C285.952,126.421,285.752,125.669,285.251,125.168z"
		/>
</g>
<g id="row1">
	<g id="sq">
		<path fill="#FFF100" stroke="#FC821F" stroke-width="6" stroke-miterlimit="10" d="M70,60c0,5.523-4.477,10-10,10H20
			c-5.522,0-10-4.477-10-10V20c0-5.523,4.477-10,10-10h40c5.523,0,10,4.477,10,10V60z"/>
		<path fill="#FFF100" stroke="#FC821F" stroke-width="6" stroke-miterlimit="10" d="M150,60c0,5.523-4.477,10-10,10h-40
			c-5.522,0-10-4.477-10-10V20c0-5.523,4.478-10,10-10h40c5.523,0,10,4.477,10,10V60z"/>
		<path fill="#FFF100" stroke="#FC821F" stroke-width="6" stroke-miterlimit="10" d="M230,60c0,5.523-4.477,10-10,10h-40
			c-5.522,0-10-4.477-10-10V20c0-5.523,4.478-10,10-10h40c5.523,0,10,4.477,10,10V60z"/>
		<path fill="#FFF100" stroke="#FC821F" stroke-width="6" stroke-miterlimit="10" d="M310,60c0,5.523-4.477,10-10,10h-40
			c-5.522,0-10-4.477-10-10V20c0-5.523,4.478-10,10-10h40c5.523,0,10,4.477,10,10V60z"/>
	</g>
	<path fill="none" stroke="#FC821F" stroke-width="4" stroke-linecap="round" stroke-miterlimit="10" d="M284.204,18.445
		c10.172,2.417,16.455,12.621,14.037,22.791c-2.417,10.17-12.619,16.456-22.791,14.038"/>
	<circle fill="none" stroke="#FC821F" stroke-width="4" stroke-miterlimit="10" cx="279.141" cy="36.68" r="14.675"/>
	<g>
		<path fill="#FC821F" d="M21,23h10v-6h6v6h22v5H37v5c2,0,4.133,0,6,0c5.733,0,10.017,0.925,13.15,3.425
			c3.133,2.5,4.7,5.917,4.7,10.25c0,3.767-1.3,6.992-3.9,9.675c-2.6,2.683-6.134,4.458-10.6,5.325l-1.7-5.7
			c3-0.633,5.392-1.8,7.175-3.5c1.783-1.7,2.675-3.633,2.675-5.8c0-3.066-1.217-5.3-3.65-6.7c-2.3,6.034-5.467,10.742-9.5,14.125
			C37.316,57.483,33.3,59,29,59c-2.934,0-5.434-0.7-7.2-2.45c-1.767-1.75-2.65-4.108-2.65-7.075c0-3.4,1.066-6.417,3.2-9.05
			C24.483,37.792,27.133,35.367,31,34v-6H21V23z M31,41c-3.9,2.067-5.5,4.558-5.5,7.825c0,1.5,0.35,2.65,1.05,3.45
			c0.7,0.8,1.683,1.2,2.95,1.2C30.167,53.475,31,53,31,53V41z M45.1,38.425c-0.934-0.066-1.684-0.1-2.25-0.1
			c-1.9,0-4.184,0.375-5.85,0.675v11C40.2,47.133,43.233,43.125,45.1,38.425z"/>
	</g>
	<circle fill="none" stroke="#FC821F" stroke-width="6" stroke-miterlimit="10" cx="194" cy="34" r="13"/>
	<polygon fill="#FC821F" points="201,46 214,61 222,52 207,40 	"/>
	<polygon fill="#FC821F" points="94.986,34.872 120,24 145.014,34.872 120,45.743 	"/>
	<path fill="#FC821F" d="M101.065,40.472L120,48.625l19.629-8.153v8.153c0,0-5.112,1.359-8.686,3.106
		C128.165,53.09,120,57.75,120,57.75s-5.646-5.241-9.901-6.795c-3.506-1.279-9.033-2.912-9.033-2.912V40.472z"/>
	
		<polyline fill="#FFFFFF" stroke="#FC821F" stroke-width="4" stroke-linecap="round" stroke-linejoin="round" stroke-miterlimit="10" points="
		282,57.125 282,58.25 269.466,60 293.949,60 282.75,58.125 	"/>
</g>
<g id="grid">
</g>
</svg>
